<svg id="visual" viewBox="0 0 960 200" width="960" height="200" xmlns="http://www.w3.org/2000/svg" xmlns:xlink="http://www.w3.org/1999/xlink" version="1.1"><rect x="0" y="0" width="960" height="200" fill="#202731"></rect><path d="M0 149L16 145.5C32 142 64 135 96 135C128 135 160 142 192 146.3C224 150.7 256 152.3 288 152.7C320 153 352 152 384 148.3C416 144.7 448 138.3 480 135.2C512 132 544 132 576 134.2C608 136.3 640 140.7 672 145.3C704 150 736 155 768 154.7C800 154.3 832 148.7 864 146.7C896 144.7 928 146.3 944 147.2L960 148L960 0L944 0C928 0 896 0 864 0C832 0 800 0 768 0C736 0 704 0 672 0C640 0 608 0 576 0C544 0 512 0 480 0C448 0 416 0 384 0C352 0 320 0 288 0C256 0 224 0 192 0C160 0 128 0 96 0C64 0 32 0 16 0L0 0Z" fill="#234d6e"></path><path d="M0 133L16 134C32 135 64 137 96 134.5C128 132 160 125 192 123.5C224 122 256 126 288 127.5C320 129 352 128 384 127C416 126 448 125 480 124C512 123 544 122 576 124C608 126 640 131 672 131.8C704 132.7 736 129.3 768 125C800 120.7 832 115.3 864 112.5C896 109.7 928 109.3 944 109.2L960 109L960 0L944 0C928 0 896 0 864 0C832 0 800 0 768 0C736 0 704 0 672 0C640 0 608 0 576 0C544 0 512 0 480 0C448 0 416 0 384 0C352 0 320 0 288 0C256 0 224 0 192 0C160 0 128 0 96 0C64 0 32 0 16 0L0 0Z" fill="#004f86"></path><path d="M0 106L16 105.5C32 105 64 104 96 105.3C128 106.7 160 110.3 192 112C224 113.7 256 113.3 288 109.7C320 106 352 99 384 95.8C416 92.7 448 93.3 480 96.7C512 100 544 106 576 107.7C608 109.3 640 106.7 672 107.5C704 108.3 736 112.7 768 110.7C800 108.7 832 100.3 864 99.8C896 99.3 928 106.7 944 110.3L960 114L960 0L944 0C928 0 896 0 864 0C832 0 800 0 768 0C736 0 704 0 672 0C640 0 608 0 576 0C544 0 512 0 480 0C448 0 416 0 384 0C352 0 320 0 288 0C256 0 224 0 192 0C160 0 128 0 96 0C64 0 32 0 16 0L0 0Z" fill="#00509c"></path><path d="M0 77L16 77.3C32 77.7 64 78.3 96 81.5C128 84.7 160 90.3 192 90.3C224 90.3 256 84.7 288 81C320 77.3 352 75.7 384 77.8C416 80 448 86 480 89.2C512 92.3 544 92.7 576 92.2C608 91.7 640 90.3 672 89.8C704 89.3 736 89.7 768 88C800 86.3 832 82.7 864 81.5C896 80.3 928 81.7 944 82.3L960 83L960 0L944 0C928 0 896 0 864 0C832 0 800 0 768 0C736 0 704 0 672 0C640 0 608 0 576 0C544 0 512 0 480 0C448 0 416 0 384 0C352 0 320 0 288 0C256 0 224 0 192 0C160 0 128 0 96 0C64 0 32 0 16 0L0 0Z" fill="#004db0"></path><path d="M0 64L16 63.3C32 62.7 64 61.3 96 62.2C128 63 160 66 192 66C224 66 256 63 288 62.7C320 62.3 352 64.7 384 66C416 67.3 448 67.7 480 68.5C512 69.3 544 70.7 576 71.3C608 72 640 72 672 69.2C704 66.3 736 60.7 768 58C800 55.3 832 55.7 864 57.7C896 59.7 928 63.3 944 65.2L960 67L960 0L944 0C928 0 896 0 864 0C832 0 800 0 768 0C736 0 704 0 672 0C640 0 608 0 576 0C544 0 512 0 480 0C448 0 416 0 384 0C352 0 320 0 288 0C256 0 224 0 192 0C160 0 128 0 96 0C64 0 32 0 16 0L0 0Z" fill="#0048c1"></path><path d="M0 50L16 48.7C32 47.3 64 44.7 96 43.3C128 42 160 42 192 43.3C224 44.7 256 47.3 288 47.2C320 47 352 44 384 43.8C416 43.7 448 46.3 480 47.8C512 49.3 544 49.7 576 47.5C608 45.3 640 40.7 672 39.3C704 38 736 40 768 40.7C800 41.3 832 40.7 864 41.2C896 41.7 928 43.3 944 44.2L960 45L960 0L944 0C928 0 896 0 864 0C832 0 800 0 768 0C736 0 704 0 672 0C640 0 608 0 576 0C544 0 512 0 480 0C448 0 416 0 384 0C352 0 320 0 288 0C256 0 224 0 192 0C160 0 128 0 96 0C64 0 32 0 16 0L0 0Z" fill="#1c3fd1"></path><path d="M0 21L16 22C32 23 64 25 96 26.2C128 27.3 160 27.7 192 26.7C224 25.7 256 23.3 288 23.7C320 24 352 27 384 27.2C416 27.3 448 24.7 480 24.7C512 24.7 544 27.3 576 28.2C608 29 640 28 672 26.3C704 24.7 736 22.3 768 23C800 23.7 832 27.3 864 28C896 28.7 928 26.3 944 25.2L960 24L960 0L944 0C928 0 896 0 864 0C832 0 800 0 768 0C736 0 704 0 672 0C640 0 608 0 576 0C544 0 512 0 480 0C448 0 416 0 384 0C352 0 320 0 288 0C256 0 224 0 192 0C160 0 128 0 96 0C64 0 32 0 16 0L0 0Z" fill="#3c31dd"></path></svg>