<svg id="visual" viewBox="0 0 960 300" width="960" height="300" xmlns="http://www.w3.org/2000/svg" xmlns:xlink="http://www.w3.org/1999/xlink" version="1.1"><rect x="0" y="0" width="960" height="300" fill="#202731"></rect><path d="M0 182L22.8 180C45.7 178 91.3 174 137 182.5C182.7 191 228.3 212 274 216.2C319.7 220.3 365.3 207.7 411.2 204.3C457 201 503 207 548.8 208.2C594.7 209.3 640.3 205.7 686 208.7C731.7 211.7 777.3 221.3 823 217.2C868.7 213 914.3 195 937.2 186L960 177L960 0L937.2 0C914.3 0 868.7 0 823 0C777.3 0 731.7 0 686 0C640.3 0 594.7 0 548.8 0C503 0 457 0 411.2 0C365.3 0 319.7 0 274 0C228.3 0 182.7 0 137 0C91.3 0 45.7 0 22.8 0L0 0Z" fill="#ff6f61"></path><path d="M0 128L22.8 128.3C45.7 128.7 91.3 129.3 137 141.7C182.7 154 228.3 178 274 189.2C319.7 200.3 365.3 198.7 411.2 186.7C457 174.7 503 152.3 548.8 148.7C594.7 145 640.3 160 686 159.3C731.7 158.7 777.3 142.3 823 137.2C868.7 132 914.3 138 937.2 141L960 144L960 0L937.2 0C914.3 0 868.7 0 823 0C777.3 0 731.7 0 686 0C640.3 0 594.7 0 548.8 0C503 0 457 0 411.2 0C365.3 0 319.7 0 274 0C228.3 0 182.7 0 137 0C91.3 0 45.7 0 22.8 0L0 0Z" fill="#c9557b"></path><path d="M0 87L22.8 91C45.7 95 91.3 103 137 113.7C182.7 124.3 228.3 137.7 274 138.5C319.7 139.3 365.3 127.7 411.2 128.7C457 129.7 503 143.3 548.8 140.8C594.7 138.3 640.3 119.7 686 119.2C731.7 118.7 777.3 136.3 823 141.5C868.7 146.7 914.3 139.3 937.2 135.7L960 132L960 0L937.2 0C914.3 0 868.7 0 823 0C777.3 0 731.7 0 686 0C640.3 0 594.7 0 548.8 0C503 0 457 0 411.2 0C365.3 0 319.7 0 274 0C228.3 0 182.7 0 137 0C91.3 0 45.7 0 22.8 0L0 0Z" fill="#834b7b"></path><path d="M0 84L22.8 79.8C45.7 75.7 91.3 67.3 137 63.7C182.7 60 228.3 61 274 69.2C319.7 77.3 365.3 92.7 411.2 101C457 109.3 503 110.7 548.8 109.2C594.7 107.7 640.3 103.3 686 97.7C731.7 92 777.3 85 823 82.5C868.7 80 914.3 82 937.2 83L960 84L960 0L937.2 0C914.3 0 868.7 0 823 0C777.3 0 731.7 0 686 0C640.3 0 594.7 0 548.8 0C503 0 457 0 411.2 0C365.3 0 319.7 0 274 0C228.3 0 182.7 0 137 0C91.3 0 45.7 0 22.8 0L0 0Z" fill="#433d5e"></path><path d="M0 68L22.8 65.7C45.7 63.3 91.3 58.7 137 52.7C182.7 46.7 228.3 39.3 274 40.2C319.7 41 365.3 50 411.2 49.3C457 48.7 503 38.3 548.8 36C594.7 33.7 640.3 39.3 686 45.5C731.7 51.7 777.3 58.3 823 62C868.7 65.7 914.3 66.3 937.2 66.7L960 67L960 0L937.2 0C914.3 0 868.7 0 823 0C777.3 0 731.7 0 686 0C640.3 0 594.7 0 548.8 0C503 0 457 0 411.2 0C365.3 0 319.7 0 274 0C228.3 0 182.7 0 137 0C91.3 0 45.7 0 22.8 0L0 0Z" fill="#202731"></path></svg>